<svg width="600" height="315" viewBox="0 0 600 315" fill="none" xmlns="http://www.w3.org/2000/svg">
<rect width="600" height="315" fill="white"/>
<rect x="99.3359" y="34.9011" width="450.664" height="19.0114" fill="#DCDCDC"/>
<rect x="99.3359" y="58.6654" width="450.664" height="19.0114" fill="#DCDCDC"/>
<rect x="99.3359" y="82.4297" width="450.664" height="19.0114" fill="#DCDCDC"/>
<rect x="99.3359" y="106.194" width="225.332" height="19.0114" fill="#DCDCDC"/>
<rect x="99.3359" y="240.224" width="450.664" height="19.0114" fill="#DCDCDC"/>
<rect x="99.3359" y="263.989" width="450.664" height="19.0114" fill="#DCDCDC"/>
<rect x="99.3359" y="137.563" width="450.664" height="19.0114" fill="#DCDCDC"/>
<rect x="99.3359" y="161.327" width="450.664" height="19.0114" fill="#DCDCDC"/>
<rect x="99.3359" y="185.091" width="450.664" height="19.0114" fill="#DCDCDC"/>
<rect x="99.3359" y="208.856" width="343.363" height="19.0114" fill="#DCDCDC"/>
<rect x="51.8975" y="137.563" width="18.9753" height="19.0114" fill="#686666"/>
<path d="M67.8602 141.407L66.4643 140L60.9301 145.579L55.3959 140L54 141.407L59.5342 146.987L54 152.566L55.3959 153.973L60.9301 148.394L66.4643 153.973L67.8602 152.566L62.326 146.987L67.8602 141.407Z" fill="white"/>
<rect x="51.8975" y="240.224" width="18.9753" height="19.0114" fill="#686666"/>
<path d="M68.0266 39.0932L66.6889 37.7529L61.3853 43.0666L56.0817 37.7529L54.7439 39.0932L60.0475 44.4069L54.7439 49.7206L56.0817 51.0609L61.3853 45.7472L66.6889 51.0609L68.0266 49.7206L62.723 44.4069L68.0266 39.0932Z" fill="white"/>
<rect x="52" y="34" width="18.9753" height="19.0114" fill="#686666"/>
<path d="M68.8602 38.4073L67.4643 37L61.9301 42.5794L56.3959 37L55 38.4073L60.5342 43.9867L55 49.5661L56.3959 50.9734L61.9301 45.394L67.4643 50.9734L68.8602 49.5661L63.326 43.9867L68.8602 38.4073Z" fill="white"/>
<path d="M67.8602 244.407L66.4643 243L60.9301 248.579L55.3959 243L54 244.407L59.5342 249.987L54 255.566L55.3959 256.973L60.9301 251.394L66.4643 256.973L67.8602 255.566L62.326 249.987L67.8602 244.407Z" fill="white"/>
</svg>
